<?xml version="1.0" encoding="utf-8" ?>
<svg baseProfile="full" height="1024" version="1.1" width="1024" xmlns="http://www.w3.org/2000/svg" xmlns:ev="http://www.w3.org/2001/xml-events" xmlns:xlink="http://www.w3.org/1999/xlink"><defs /><polygon fill="black" points="255,313 255,314 256,315 256,455 257,456 257,464 258,465 258,471 259,472 259,477 260,478 260,482 261,483 261,486 262,487 262,490 263,491 263,494 264,495 264,497 265,498 265,500 266,501 266,503 267,504 267,506 268,507 268,509 269,510 269,512 270,513 270,514 271,515 271,517 272,518 272,519 273,520 273,521 274,522 274,524 275,525 275,526 276,527 276,528 277,529 277,530 278,531 278,532 279,533 279,534 280,535 280,536 282,538 282,539 283,540 283,541 284,542 284,543 286,545 286,546 288,548 288,549 289,550 289,551 292,554 292,555 294,557 294,558 297,561 297,562 300,565 300,566 304,570 304,571 325,592 326,592 331,597 332,597 336,601 337,601 340,604 341,604 343,606 344,606 347,609 348,609 350,611 351,611 353,613 354,613 356,615 357,615 360,618 361,618 363,620 364,620 366,622 367,622 370,625 371,625 374,628 375,628 377,630 378,630 381,633 382,633 385,636 386,636 390,640 391,640 394,643 395,643 399,647 400,647 404,651 405,651 410,656 411,656 416,661 417,661 424,668 425,668 435,678 436,678 463,705 463,706 472,715 472,716 478,722 478,723 484,729 484,730 489,735 489,736 493,740 493,741 498,746 498,747 502,751 502,752 506,756 506,757 510,761 510,762 511,763 512,763 512,762 516,758 516,757 520,753 520,752 525,747 525,746 529,742 529,741 534,736 534,735 539,730 539,729 545,723 545,722 551,716 551,715 561,705 561,704 585,680 586,680 597,669 598,669 605,662 606,662 611,657 612,657 618,651 619,651 623,647 624,647 628,643 629,643 633,639 634,639 638,635 639,635 642,632 643,632 646,629 647,629 649,627 650,627 653,624 654,624 657,621 658,621 660,619 661,619 663,617 664,617 667,614 668,614 670,612 671,612 673,610 674,610 677,607 678,607 680,605 681,605 684,602 685,602 689,598 690,598 694,594 695,594 704,585 705,585 713,577 713,576 720,569 720,568 724,564 724,563 728,559 728,558 730,556 730,555 732,553 732,552 734,550 734,549 736,547 736,546 738,544 738,543 739,542 739,541 741,539 741,538 742,537 742,536 743,535 743,534 744,533 744,532 745,531 745,530 746,529 746,528 747,527 747,526 748,525 748,524 749,523 749,522 750,521 750,520 751,519 751,517 752,516 752,515 753,514 753,512 754,511 754,510 755,509 755,507 756,506 756,504 757,503 757,501 758,500 758,498 759,497 759,494 760,493 760,491 761,490 761,487 762,486 762,482 763,481 763,478 764,477 764,472 765,471 765,465 766,464 766,456 767,455 767,315 768,314 768,313 765,313 764,314 754,314 753,315 746,315 745,316 739,316 738,317 733,317 732,318 727,318 726,319 723,319 722,320 718,320 717,321 714,321 713,322 710,322 709,323 707,323 706,324 703,324 702,325 700,325 699,326 697,326 696,327 694,327 693,328 691,328 690,329 688,329 687,330 686,330 685,331 683,331 682,332 681,332 680,333 678,333 677,334 676,334 675,335 674,335 673,336 672,336 671,337 669,337 668,338 667,338 666,339 665,339 664,340 663,340 662,341 661,341 659,343 658,343 657,344 656,344 655,345 654,345 652,347 651,347 650,348 649,348 647,350 646,350 644,352 643,352 641,354 640,354 638,356 637,356 634,359 633,359 630,362 629,362 625,366 624,366 618,372 617,372 602,387 602,388 597,393 597,394 593,398 593,399 590,402 590,403 587,406 587,407 585,409 585,410 583,412 583,413 581,415 581,416 579,418 579,419 578,420 578,421 577,422 577,423 575,425 575,426 574,427 574,428 573,429 573,430 572,431 572,432 571,433 571,434 570,435 570,436 569,437 569,438 568,439 568,440 567,441 567,442 566,443 566,444 565,445 565,447 564,448 564,449 563,450 563,452 562,453 562,454 561,455 561,457 560,458 560,460 559,461 559,463 558,464 558,466 557,467 557,469 556,470 556,472 555,473 555,475 554,476 554,479 553,480 553,482 552,483 552,486 551,487 551,490 550,491 550,495 549,496 549,499 548,500 548,504 547,505 547,509 546,510 546,515 545,516 545,521 544,522 544,527 543,528 543,534 542,535 542,541 541,542 541,550 540,551 540,559 539,560 539,569 538,570 538,581 537,582 537,593 536,594 536,606 535,607 535,617 534,618 534,626 533,627 533,633 532,634 532,640 531,641 531,646 530,647 530,650 529,651 529,655 528,656 528,659 527,660 527,663 526,664 526,666 525,667 525,669 524,670 524,672 523,673 523,675 522,676 522,678 521,679 521,680 520,681 520,683 519,684 519,685 518,686 518,687 517,688 517,689 516,690 516,691 514,693 514,694 513,695 513,696 512,697 511,697 510,696 510,695 509,694 509,693 507,691 507,690 506,689 506,688 505,687 505,686 504,685 504,684 503,683 503,681 502,680 502,679 501,678 501,676 500,675 500,673 499,672 499,670 498,669 498,667 497,666 497,664 496,663 496,660 495,659 495,656 494,655 494,652 493,651 493,647 492,646 492,641 491,640 491,635 490,634 490,628 489,627 489,619 488,618 488,608 487,607 487,596 486,595 486,584 485,583 485,573 484,572 484,562 483,561 483,552 482,551 482,544 481,543 481,536 480,535 480,529 479,528 479,523 478,522 478,517 477,516 477,511 476,510 476,506 475,505 475,501 474,500 474,497 473,496 473,492 472,491 472,488 471,487 471,484 470,483 470,481 469,480 469,477 468,476 468,474 467,473 467,471 466,470 466,467 465,466 465,464 464,463 464,461 463,460 463,459 462,458 462,456 461,455 461,453 460,452 460,450 459,449 459,448 458,447 458,446 457,445 457,444 456,443 456,441 455,440 455,439 454,438 454,437 453,436 453,435 452,434 452,433 451,432 451,431 450,430 450,429 449,428 449,427 448,426 448,425 446,423 446,422 445,421 445,420 444,419 444,418 442,416 442,415 440,413 440,412 438,410 438,409 436,407 436,406 433,403 433,402 430,399 430,398 426,394 426,393 420,387 420,386 406,372 405,372 399,366 398,366 394,362 393,362 389,358 388,358 386,356 385,356 382,353 381,353 379,351 378,351 377,350 376,350 374,348 373,348 372,347 371,347 369,345 368,345 367,344 366,344 365,343 364,343 363,342 362,342 360,340 359,340 358,339 357,339 356,338 355,338 354,337 353,337 352,336 350,336 349,335 348,335 347,334 346,334 345,333 344,333 343,332 341,332 340,331 339,331 338,330 336,330 335,329 333,329 332,328 330,328 329,327 327,327 326,326 324,326 323,325 321,325 320,324 317,324 316,323 314,323 313,322 310,322 309,321 305,321 304,320 301,320 300,319 296,319 295,318 290,318 289,317 285,317 284,316 277,316 276,315 268,315 267,314 257,314 256,313" /><polygon fill="black" points="504,234 503,235 497,235 496,236 493,236 492,237 490,237 489,238 487,238 486,239 484,239 483,240 482,240 481,241 480,241 479,242 478,242 477,243 476,243 474,245 473,245 471,247 470,247 467,250 466,250 457,259 457,260 454,263 454,264 452,266 452,267 450,269 450,270 449,271 449,272 448,273 448,274 447,275 447,277 446,278 446,279 445,280 445,282 444,283 444,285 443,286 443,289 442,290 442,295 441,296 441,315 442,316 442,321 443,322 443,324 444,325 444,328 445,329 445,331 446,332 446,333 447,334 447,335 448,336 448,337 449,338 449,339 450,340 450,341 452,343 452,344 453,345 453,346 456,349 456,350 466,360 467,360 470,363 471,363 473,365 474,365 476,367 477,367 478,368 479,368 480,369 481,369 482,370 483,370 484,371 486,371 487,372 489,372 490,373 493,373 494,374 497,374 498,375 505,375 506,376 517,376 518,375 525,375 526,374 529,374 530,373 533,373 534,372 535,372 536,371 538,371 539,370 540,370 541,369 542,369 543,368 544,368 545,367 546,367 547,366 548,366 550,364 551,364 553,362 554,362 557,359 558,359 565,352 565,351 569,347 569,346 571,344 571,343 572,342 572,341 574,339 574,338 575,337 575,336 576,335 576,333 577,332 577,331 578,330 578,328 579,327 579,325 580,324 580,321 581,320 581,315 582,314 582,295 581,294 581,289 580,288 580,285 579,284 579,282 578,281 578,279 577,278 577,277 576,276 576,275 575,274 575,273 574,272 574,271 573,270 573,269 572,268 572,267 570,265 570,264 567,261 567,260 557,250 556,250 553,247 552,247 550,245 549,245 547,243 546,243 545,242 544,242 543,241 542,241 541,240 539,240 538,239 537,239 536,238 534,238 533,237 530,237 529,236 526,236 525,235 519,235 518,234" /></svg>